PathFileType	4	(X/Y/Z)	Patient4_TMGait_0pt5_02_left_10.trc.trc
DataRate	CameraRate	NumFrames	NumMarkers	Units	OrigDataRate	OrigDataStartFrame	OrigNumFrames
74.074074074074	74.074074074074	4	33	mm	74.074074074074	106	       141
Frame#	Time	Sacral			L.Shoulder			Chest			R.Shoulder			Neck			R.ASIS			L.ASIS			R.Thigh.Superior			R.Thigh.Lateral			R.Thigh.Inferior			R.Patella			L.Thigh.Superior			L.Thigh.Lateral			L.Thigh.Inferior			L.Patella			L.Shank.Superior			L.Shank.Lateral			L.Shank.Inferior			R.Shank.Superior			R.Shank.Lateral			R.Shank.Inferior			R.Heel			R.Midfoot.Superior			R.Midfoot.Lateral			R.Toe			L.Heel			L.Midfoot.Lateral			L.Midfoot.Superior			L.Toe			L.Elbow			L.Wrist			R.Elbow			R.Wrist			
		X1	Y1	Z1	X2	Y2	Z2	X3	Y3	Z3	X4	Y4	Z4	X5	Y5	Z5	X6	Y6	Z6	X7	Y7	Z7	X8	Y8	Z8	X9	Y9	Z9	X10	Y10	Z10	X11	Y11	Z11	X12	Y12	Z12	X13	Y13	Z13	X14	Y14	Z14	X15	Y15	Z15	X16	Y16	Z16	X17	Y17	Z17	X18	Y18	Z18	X19	Y19	Z19	X20	Y20	Z20	X21	Y21	Z21	X22	Y22	Z22	X23	Y23	Z23	X24	Y24	Z24	X25	Y25	Z25	X26	Y26	Z26	X27	Y27	Z27	X28	Y28	Z28	X29	Y29	Z29	X30	Y30	Z30	X31	Y31	Z31	X32	Y32	Z32	X33	Y33	Z33	

106	13.787500000000	611.121118057119	1015.279920205580	532.357062018715	784.414980172321	1439.941163806641	346.021162455448	898.204183064509	1364.541815256974	496.584303936409	833.404354327092	1439.322053580992	678.549319999509	798.692513386405	1498.632876306625	497.219124573903	842.589108169524	941.474269801407	634.064032873648	812.495159701175	966.037162349804	361.662156680488	869.257950631410	737.295113464026	598.583112035227	783.072772657506	632.810390253236	657.935041941210	851.607193651785	577.213400295559	572.788166430521	845.858084516750	489.157438455581	575.038774434638	897.026337174575	786.298311582980	390.815143334953	852.453755904780	660.000130291304	313.418817591105	954.532042793077	598.615105919204	375.050264272105	974.324300717434	517.077920355003	368.782473419543	929.083599817613	442.722015632162	358.757638387699	812.789151914433	357.321507157347	305.062771954652	843.434767594544	230.944467719826	359.501623481500	814.529758066581	402.720699451823	580.617367612323	741.490816452401	301.127369621318	642.527029445120	773.932749223110	206.347046137693	574.463496735814	629.221624436530	45.819441329894	545.119931811787	802.876397574171	96.870274487194	575.896802971221	714.634896761759	37.251499629761	616.814611207835	922.638560301054	39.693368892572	600.361765349470	686.919634485560	102.652301909334	392.028437334205	755.890516460464	88.080503892435	309.617824115863	851.306528078684	128.658990775020	334.182330456146	961.612825828583	54.194930520471	298.631933538563	699.194090422842	1094.599401772095	232.143496518404	703.500399251149	835.747363435134	214.984790317338	889.852059773441	1110.309314310373	817.196820623828	1126.296232017284	1033.286005158208	754.572131285721	
107	13.801000000000	609.686660837757	1015.720281331206	533.469425101072	783.345874374623	1439.948905266201	346.743042556336	898.035406171972	1363.888061048801	496.218587024218	835.100818816771	1438.891905009557	678.754897292036	798.941680216703	1498.316712156811	497.874766199268	841.419276611430	940.927856049023	633.740640721780	810.233156307360	966.099011527160	361.408519402864	866.225838318998	736.447213238190	597.964679227996	779.827223326030	632.391354041893	657.965247479338	847.429783758744	576.427520872184	572.411207512077	841.118378688370	488.458334416556	574.792040801187	894.562587603574	786.810779591855	390.916619814361	850.516868377283	660.531675038681	313.081866450605	951.935405623272	599.308662547406	375.775732619881	973.431490447441	520.052378926248	369.461866134529	932.588481652003	445.216891688185	358.678764643195	823.264195605721	352.231018199034	303.504785253182	862.217186660723	227.930675796372	358.247515248097	809.384392741797	402.130102191547	580.442291547750	735.969509713012	300.867350759574	642.443951221379	767.763168200002	205.963332221488	574.325943243796	622.390883862341	45.770057618666	545.137362778905	795.998841500902	96.811421460446	575.842804867885	707.808487594436	37.211756798558	616.836919708801	915.796777413260	39.670493672686	600.389372946683	714.977783522665	88.655876460064	389.356973134891	785.673440183112	79.120447396692	307.599602166379	877.708212263090	126.340753262341	332.980530071355	993.395576617200	59.973598887280	298.599870085143	690.373440142193	1097.051845644322	232.519924774209	688.783359935206	838.164212468595	215.896613036626	899.345637837034	1111.912182411385	816.495974771127	1138.433623748754	1050.928290181479	749.045885968028	
108	13.814500000000	608.267837477677	1015.999632532278	534.402779436660	782.370418946921	1439.864824381837	347.353291906944	897.853876286339	1363.091868361726	495.786943065207	836.638575396010	1438.244635930950	678.849402810578	799.189219001834	1497.862670974982	498.442510605096	840.248301632046	940.288658527443	633.291897474825	808.025228072910	965.934027305829	361.008500173682	863.346198597301	735.545727242250	597.374110271918	776.717279940165	631.875784229851	657.925456327425	843.469583459226	575.577910017993	572.028077464408	836.577637944121	487.674155239289	574.503646800738	891.727667469851	786.750189087367	390.942876313961	848.143943938339	660.678604655383	312.517624793326	948.729439612661	599.424964549028	376.436307127403	971.853268891486	522.584054292404	370.106101566001	935.423857025646	447.610955793780	358.593233374916	833.645425325152	347.460753838558	301.851430788714	880.587484377662	225.830200258927	357.169863260265	804.386103717348	401.446113369247	580.209117307757	730.565500454944	300.542688715132	642.313185788728	761.639273324341	205.506223569391	574.147093105805	615.552071093814	45.687052732416	545.150682243625	789.095594800770	96.734847145467	575.756096283546	700.975535705602	37.161990153054	616.858072643484	908.951060883244	39.652788938968	600.406399193546	743.147312209506	76.387688733090	386.751793576593	815.507727875777	71.659046299239	305.895215781779	903.721721560973	125.234887341368	332.192721394092	1024.262412420620	66.989235214588	299.549733523050	681.894606158820	1099.487465741984	233.000127714515	675.019721953502	840.636263146894	217.067542540155	908.549988942167	1113.311451189051	815.271488737167	1149.096698890988	1068.414683518287	743.051081891523	
109	13.828000000000	606.882970241264	1016.119367813892	535.154389233369	781.490349784372	1439.692228929522	347.829970868888	897.648723372640	1362.185467519509	495.293223130003	837.977216264465	1437.423472848262	678.822654784900	799.419201150806	1497.292423524759	498.896283109625	839.106850154155	939.577496935105	632.736504976030	805.886547339014	965.560870787315	360.483030744464	860.642013314894	734.600695497692	596.803132643350	773.753305846215	631.277729907154	657.809219148472	839.723507376669	574.670608539270	571.629548175659	832.224825752755	486.811540190158	574.161343929304	888.606088162345	786.185548319344	390.889292155970	845.471790209994	660.506094803045	311.725609786400	945.115956213034	599.066175458979	376.966211692087	969.752190972993	524.694708790308	370.660642294982	937.651736728676	449.905851734681	358.470302796024	843.748337806783	343.169331774509	300.186590671543	898.205175725014	224.713920689768	356.302451519797	799.526258269911	400.678973329951	579.910347328788	725.276777315308	300.165946572936	642.135096595624	755.560190130095	204.989356799436	573.927778633140	608.707253227681	45.575845316765	545.162129272146	782.172835507352	96.643165740217	575.640523089076	694.137840280282	37.106219241281	616.881024931430	902.103661179463	39.642222810292	600.414350522758	770.810257774068	66.132389957715	384.390658101486	844.733897751684	65.842673052519	304.616450569139	928.831022905930	125.355844473062	331.827616805852	1053.615527351708	75.041670393177	301.382875263023	673.829745852698	1101.851962725538	233.608870012661	662.185582189195	843.085008895996	218.457430217438	917.426295341704	1114.519585943345	813.505867851663	1158.285408857031	1085.570595285071	736.653069244025	
